# xmcd CD database file
#
# Track frame offsets:
#	150
#	21245
#	43059
#	67522
#	85566
#	104538
#	125874
#	145102
#	166460
#	196306
#	209097
#	226751
#	245310
#	270136
#
# Disc length: 3724 seconds
#
# Revision: 0
# Processed by: cddbd v1.5.2PL0 Copyright (c) Steve Scherf et al.
# Submitted via: CDex 1.51
#
DISCID=b90e8a0e
DTITLE=Petr Hanzlik - Day Dream
DYEAR=2004
DGENRE=Jazz
TTITLE0=If I Were A Bell
TTITLE1=Blue Velvet
TTITLE2=Georgia
TTITLE3=The Way You Look Tonight
TTITLE4=The Girl From Ipanema
TTITLE5=Just Squeeze Me
TTITLE6=The Nearness of You
TTITLE7=DayDream
TTITLE8=Dindi
TTITLE9=Fly ma to the moon
TTITLE10=I Thought about You
TTITLE11=The Days of Wine and Roses
TTITLE12=That's All
TTITLE13=I've got the World on a String
EXTD=YEAR: 2004
EXTT0=
EXTT1=
EXTT2=
EXTT3=
EXTT4=
EXTT5=
EXTT6=
EXTT7=
EXTT8=
EXTT9=
EXTT10=
EXTT11=
EXTT12=
EXTT13=
PLAYORDER=
